<svg width="206" height="175" fill="none" xmlns="http://www.w3.org/2000/svg"><g clip-path="url(#a)"><path d="M100.985 135.128 51.288 85.68l24.548-28.768 32.054-11.033 37.123.57 19.973 11.033 5.671 25.009-15.919 40.623-1.48 21.085-9.37 4.903-23.178-10.542-19.725-3.432Z" fill="#fff"/><path d="M197.06 118.602c4.76-10.681-.089-23.176-10.829-27.91-10.741-4.732-23.307.09-28.067 10.77-4.759 10.681.089 23.176 10.83 27.909 10.741 4.733 23.307-.088 28.066-10.769Z" fill="#222"/><path d="M186.748 123.836c7.614-7.572 7.614-19.849 0-27.421-7.615-7.572-19.961-7.572-27.576 0-7.615 7.572-7.615 19.849 0 27.421 7.615 7.572 19.961 7.572 27.576 0Z" fill="#fff"/><path d="M186.089 110.711c1.585-10.581-5.756-20.436-16.397-22.011-10.64-1.576-20.55 5.724-22.135 16.305-1.584 10.581 5.757 20.435 16.397 22.011 10.641 1.576 20.551-5.724 22.135-16.305Z" fill="#fff"/><path d="M152.425 160.729c2.395-8.524-2.612-17.365-11.185-19.747-8.572-2.381-17.462 2.598-19.857 11.122-2.395 8.524 2.613 17.365 11.185 19.747 8.572 2.381 17.462-2.598 19.857-11.122Z" fill="#222"/><path d="M137.07 167.452c8.158-.111 14.681-6.776 14.569-14.888-.111-8.112-6.814-14.599-14.971-14.488-8.158.11-14.68 6.776-14.569 14.888.111 8.112 6.814 14.598 14.971 14.488Z" fill="#fff"/><path d="M149.131 147.589c0 8.558-6.977 15.496-15.583 15.496-8.607 0-15.584-6.938-15.584-15.496s6.977-15.496 15.584-15.496c8.606 0 15.583 6.938 15.583 15.496Z" fill="#fff"/><path d="M89.943 151.119c10.515-10.456 10.515-27.409 0-37.865-10.515-10.457-27.564-10.457-38.079 0-10.515 10.456-10.515 27.409 0 37.865 10.515 10.457 27.564 10.457 38.08 0Z" fill="#222"/><path d="M90.576 145.617c9.638-9.585 9.638-25.124 0-34.709-9.639-9.584-25.266-9.584-34.904 0-9.639 9.585-9.639 25.124 0 34.709 9.638 9.584 25.265 9.584 34.904 0Z" fill="#fff"/><path d="M79.832 144.148c10.686-1.237 18.34-10.854 17.096-21.48-1.244-10.625-10.915-18.236-21.6-16.999-10.686 1.236-18.34 10.853-17.096 21.479 1.244 10.625 10.915 18.236 21.6 17Z" fill="#fff"/><path d="M164.195 54.202c8.475-1.078 14.466-8.784 13.382-17.211-1.085-8.427-8.833-14.385-17.308-13.307-8.475 1.078-14.466 8.784-13.382 17.211 1.084 8.427 8.833 14.385 17.308 13.307Z" fill="#222"/><path d="M169.363 53.331a14.047 14.047 0 0 0 0-19.943c-5.538-5.507-14.517-5.507-20.056 0a14.047 14.047 0 0 0 0 19.944c5.539 5.507 14.518 5.507 20.056 0Z" fill="#fff"/><path d="M172.404 51.574c.906-9.049-5.737-17.114-14.837-18.014-9.1-.9-17.21 5.706-18.115 14.755-.905 9.048 5.738 17.113 14.838 18.013 9.099.9 17.209-5.706 18.114-14.754Z" fill="#fff"/><path d="M140.361 24.328c7.12 0 12.891 5.74 12.891 12.819 0 7.08-5.772 12.82-12.891 12.82-7.12 0-12.892-5.74-12.892-12.82s5.772-12.82 12.892-12.82Z" fill="#222"/><path d="M139.014 28.884c6.527 0 11.818 5.261 11.818 11.751 0 6.49-5.291 11.752-11.818 11.752-6.527 0-11.818-5.261-11.818-11.752 0-6.49 5.291-11.751 11.818-11.751Z" fill="#fff"/><path d="M174.872 142.69c6.294-6.258 6.294-16.405 0-22.663-6.293-6.258-16.497-6.258-22.79 0-6.294 6.258-6.294 16.405 0 22.663 6.293 6.258 16.497 6.258 22.79 0Z" fill="#222"/><path d="M163.393 143.351c7.777-2.452 12.083-10.708 9.617-18.442-2.465-7.733-10.768-12.015-18.545-9.563-7.777 2.452-12.083 10.708-9.617 18.442 2.465 7.733 10.768 12.014 18.545 9.563Z" fill="#fff"/><path d="M199.772 73.115c8.307-8.26 8.307-21.654 0-29.915-8.308-8.26-21.776-8.26-30.083 0-8.308 8.261-8.308 21.654 0 29.915 8.307 8.26 21.775 8.26 30.083 0Z" fill="#222"/><path d="M198.964 65.281c2.847-10.328-3.264-20.995-13.65-23.826-10.386-2.831-21.113 3.246-23.96 13.574-2.847 10.327 3.264 20.995 13.65 23.826 10.386 2.83 21.113-3.246 23.96-13.574Z" fill="#fff"/><path d="M156.511 144.158c4.449 0 8.057 3.588 8.057 8.012s-3.608 8.012-8.057 8.012c-4.45 0-8.057-3.588-8.057-8.012s3.607-8.012 8.057-8.012Z" fill="#222"/><path d="M153.773 142.631c4.08 0 7.386 3.287 7.386 7.344s-3.306 7.345-7.386 7.345-7.386-3.288-7.386-7.345 3.306-7.344 7.386-7.344Z" fill="#fff"/><path d="M100.442 51.078c1.794-14.53-8.596-27.756-23.208-29.54-14.612-1.784-27.912 8.549-29.706 23.08-1.794 14.53 8.597 27.755 23.209 29.539 14.611 1.784 27.911-8.549 29.705-23.08Z" fill="#222"/><path d="M93.336 69.957c9.543-9.49 9.543-24.874 0-34.363-9.542-9.489-25.013-9.489-34.555 0-9.542 9.49-9.542 24.874 0 34.363 9.542 9.488 25.013 9.488 34.555 0Z" fill="#fff"/><path d="M42.853 84.422c13.727 0 24.855 11.065 24.855 24.715s-11.128 24.716-24.855 24.716C29.127 133.853 18 122.787 18 109.137s11.128-24.715 24.854-24.715Z" fill="#222"/><path d="M63.43 122.949c8.76-8.711 8.76-22.834 0-31.544-8.76-8.711-22.962-8.711-31.722 0-8.76 8.71-8.76 22.833 0 31.544 8.76 8.711 22.962 8.711 31.722 0Z" fill="#fff"/><path d="M129.297 155.801c2.055-12.477-6.451-24.248-18.998-26.292-12.547-2.043-24.384 6.415-26.44 18.892-2.054 12.478 6.452 24.248 18.999 26.292 12.548 2.043 24.385-6.415 26.439-18.892Z" fill="#222"/><path d="M128.317 146.537c.305-11.586-8.892-21.224-20.543-21.527-11.651-.304-21.343 8.843-21.648 20.428-.306 11.586 8.892 21.224 20.543 21.527 11.651.304 21.343-8.842 21.648-20.428ZM79.23 109.271c10.719-.908 18.668-10.285 17.755-20.944-.914-10.659-10.343-18.563-21.062-17.655-10.719.908-18.668 10.285-17.755 20.944.914 10.659 10.343 18.563 21.062 17.655Z" fill="#fff"/><path d="M69.351 107.547c1.996-10.512-4.956-20.642-15.527-22.626-10.571-1.984-20.758 4.928-22.754 15.44-1.995 10.512 4.957 20.642 15.528 22.626 10.57 1.985 20.758-4.928 22.753-15.44Zm52.559.593c1.855-13.245-7.438-25.478-20.757-27.322-13.32-1.845-25.62 7.396-27.476 20.641-1.855 13.244 7.438 25.477 20.757 27.321 13.319 1.845 25.62-7.396 27.476-20.64Z" fill="#fff"/><path d="M125.005 135.33c0 9.662-7.877 17.493-17.592 17.493s-17.592-7.831-17.592-17.493c0-9.662 7.876-17.493 17.592-17.493 9.716 0 17.592 7.833 17.592 17.493Zm-21.08-51.035c7.607-7.564 7.607-19.828 0-27.392s-19.94-7.564-27.547 0c-7.606 7.564-7.606 19.828 0 27.392 7.607 7.565 19.94 7.565 27.547 0Z" fill="#fff"/><path d="M98.285 61.185C100 50.625 92.783 40.68 82.163 38.974c-10.62-1.707-20.62 5.47-22.336 16.031-1.716 10.56 5.501 20.505 16.121 22.212 10.62 1.706 20.62-5.471 22.337-16.032Zm35.969 26.666c7.607-7.564 7.607-19.828 0-27.392-7.607-7.565-19.94-7.565-27.547 0-7.606 7.564-7.606 19.828 0 27.392 7.607 7.564 19.94 7.564 27.547 0Z" fill="#fff"/><path d="M152.747 87.852c7.606-7.565 7.606-19.829 0-27.393-7.607-7.564-19.94-7.564-27.547 0-7.607 7.564-7.607 19.828 0 27.392 7.607 7.565 19.94 7.565 27.547 0Z" fill="#fff"/><path d="M158.769 124.856c11.886-11.819 11.886-30.982 0-42.802s-31.157-11.82-43.042 0c-11.886 11.82-11.886 30.983 0 42.802 11.885 11.819 31.156 11.819 43.042 0Z" fill="#fff"/><path d="M149.522 136.257c11.886-11.819 11.886-30.982 0-42.801-11.886-11.82-31.157-11.82-43.043 0-11.885 11.819-11.885 30.982 0 42.801 11.886 11.82 31.157 11.82 43.043 0Zm37.939-69.58c0 9.094-7.413 16.465-16.557 16.465-9.145 0-16.558-7.371-16.558-16.465 0-9.093 7.413-16.465 16.558-16.465 9.144 0 16.557 7.372 16.557 16.465Zm-41.094-15.585c.466-6.83-4.726-12.744-11.595-13.207-6.869-.463-12.816 4.699-13.282 11.53-.465 6.83 4.726 12.744 11.595 13.207 6.869.463 12.816-4.699 13.282-11.53Z" fill="#fff"/><path d="M24.854 57.697c13.727 0 24.855 11.065 24.855 24.715s-11.128 24.716-24.855 24.716C11.128 107.128 0 96.062 0 82.412s11.128-24.715 24.854-24.715Z" fill="#222"/><path d="M46.91 98.184c8.76-8.71 8.76-22.834 0-31.545-8.76-8.71-22.963-8.71-31.723 0-8.76 8.711-8.76 22.834 0 31.545 8.76 8.711 22.963 8.711 31.722 0Z" fill="#fff"/><path d="M56.743 80.652c0 10.698-8.722 19.37-19.479 19.37s-19.478-8.673-19.478-19.37c0-10.696 8.721-19.37 19.478-19.37 10.757 0 19.479 8.674 19.479 19.37Z" fill="#fff"/><path d="M67.332 75.614c9.706-9.652 9.706-25.3 0-34.953-9.706-9.652-25.443-9.652-35.15 0-9.706 9.652-9.706 25.301 0 34.953 9.707 9.652 25.444 9.652 35.15 0Z" fill="#222"/><path d="M68.853 78.814c8.76-8.711 8.76-22.834 0-31.545-8.76-8.71-22.962-8.71-31.722 0-8.76 8.711-8.76 22.834 0 31.545 8.76 8.71 22.963 8.71 31.722 0Z" fill="#fff"/><path d="M71.871 84.296c7.607-7.564 7.607-19.828 0-27.392-7.606-7.564-19.94-7.564-27.546 0-7.607 7.564-7.607 19.828 0 27.392 7.607 7.565 19.94 7.565 27.546 0Z" fill="#fff"/><path d="M106.088 0c16.22 0 29.369 13.075 29.369 29.204S122.308 58.41 106.088 58.41 76.72 45.335 76.72 29.204C76.72 13.074 89.869 0 106.088 0Z" fill="#222"/><path d="M111.937 62.736c14.628-2.646 24.329-16.583 21.668-31.13-2.661-14.545-16.676-24.192-31.304-21.546-14.629 2.646-24.33 16.583-21.669 31.13 2.661 14.546 16.677 24.193 31.305 21.547Z" fill="#fff"/><path d="M123.571 70.118c9.128-9.078 9.128-23.795 0-32.872-9.129-9.078-23.93-9.078-33.058 0-9.128 9.077-9.128 23.794 0 32.872 9.129 9.077 23.929 9.077 33.058 0Z" fill="#fff"/><path d="M178.592 107.051c12.553-2.006 21.094-13.752 19.076-26.235-2.017-12.483-13.829-20.976-26.382-18.97-12.553 2.006-21.094 13.752-19.077 26.235 2.018 12.483 13.829 20.976 26.383 18.97Z" fill="#222"/><path d="M184.628 101.531c9.086-9.035 9.086-23.684 0-32.719s-23.817-9.035-32.903 0c-9.086 9.035-9.086 23.684 0 32.719 9.086 9.036 23.817 9.036 32.903 0Z" fill="#fff"/><path d="M176.292 90.084c2.994-10.275-2.955-21.018-13.288-23.996-10.332-2.977-21.136 2.939-24.13 13.214-2.994 10.274 2.955 21.017 13.288 23.995 10.332 2.977 21.136-2.939 24.13-13.213Zm-26.586 48.501c4.08 0 7.386 3.288 7.386 7.345 0 4.056-3.306 7.344-7.386 7.344s-7.386-3.288-7.386-7.344c0-4.057 3.306-7.345 7.386-7.345Z" fill="#fff"/><path d="M165.644 130.411c1.894-6.751-2.074-13.752-8.864-15.636-6.79-1.884-13.83 2.063-15.724 8.814-1.895 6.752 2.074 13.753 8.864 15.636 6.789 1.884 13.829-2.062 15.724-8.814Z" fill="#fff"/></g><defs><clipPath id="a"><path fill="#fff" d="M0 0h206v175H0z"/></clipPath></defs></svg>