<svg width="182" height="170" fill="none" xmlns="http://www.w3.org/2000/svg"><g clip-path="url(#a)"><path d="M22.09 74.65c3.28-16.878 17.008-41.008 38.372-48.462 25.137-5.976 30.65 25.427 23.744 60.942-6.324 34.154-26.72 59.481-44.029 46.348-16.323-13.903-21.472-40.69-18.087-58.828Zm45.74 9.693c4.734-24.889-1.523-34.74-12.139-33.936-9.2.954-17.444 12.213-20.57 28.665-2.493 13.347.536 25.619 9.424 30.287 9.99 5.082 20.326-9.211 23.284-25.016Zm34.141-60.463a108.16 108.16 0 0 1 16.154 5.366 4034.019 4034.019 0 0 0-8.764 47.997c6.895-6.54 13.17-10.579 19.121-8.38 9.34 3.606 11.543 15.413 8.251 32.907-1.048 5.541-7.534 37.354-9.454 46.498a97.669 97.669 0 0 1-15.729 2.751c1.931-10.216 4.615-24.411 7.983-42.773 2.547-14.014-2.03-19.192-14.69-6.015a223101.27 223101.27 0 0 0-8.818 49.915c-5.651-.2-11.256-.877-16.792-1.998 7.502-41.863 16.27-90.419 22.738-126.267Zm38.559 97.092c6.003-.881 11.783-2.069 17.22-3.543-1.203 7.219-1.931 11.07-3.027 18.118a114.203 114.203 0 0 1-18.56 9.927c1.618-9.495 2.708-14.793 4.35-24.49l.017-.012Zm14.903-71.575a99.779 99.779 0 0 1 14.164 16.438c-3.322 12.117-7.305 28.038-10.235 42.288a417.56 417.56 0 0 1-15.944 1.004c3.612-20.038 8.635-44.74 12.015-59.73Z" style="mix-blend-mode:multiply" stroke="#040000" stroke-width="7.23" stroke-linecap="round" stroke-linejoin="round"/><path d="M18.72 69.716c3.279-16.878 17.008-41.008 38.371-48.463 25.137-5.976 30.651 25.427 23.745 60.942-6.325 34.154-26.72 59.481-44.03 46.349-16.334-13.92-21.483-40.707-18.087-58.828Zm45.728 9.675c4.734-24.888-1.523-34.74-12.139-33.935-9.2.953-17.444 12.213-20.57 28.664-2.493 13.347.536 25.62 9.425 30.288 9.989 5.082 20.325-9.211 23.284-25.017Zm34.138-60.447a108.149 108.149 0 0 1 16.155 5.365 4013.592 4013.592 0 0 0-8.765 47.997c6.896-6.54 13.171-10.579 19.122-8.38 9.339 3.606 11.543 15.413 8.25 32.907-1.047 5.541-7.534 37.354-9.454 46.498a97.65 97.65 0 0 1-15.729 2.751 7529.476 7529.476 0 0 0 7.984-42.773c2.546-14.014-2.031-19.192-14.691-6.015-2.955 16.719-5.906 33.423-8.818 49.915-5.65-.2-11.256-.877-16.791-1.998 7.502-41.863 16.27-90.419 22.737-126.267Zm38.562 97.077c6.003-.882 11.783-2.07 17.22-3.544-1.203 7.219-1.931 11.07-3.027 18.118a114.203 114.203 0 0 1-18.56 9.927c1.618-9.495 2.709-14.793 4.35-24.49l.017-.011Zm14.903-71.576a99.774 99.774 0 0 1 14.164 16.438C162.893 73 158.91 88.921 155.98 103.172c-5.014.406-10.358.764-15.944 1.003 3.612-20.038 8.635-44.74 12.015-59.73Z" stroke="#231815" stroke-width="7.23" stroke-linecap="round" stroke-linejoin="round"/><path d="M18.72 69.716c3.279-16.878 17.008-41.008 38.371-48.463 25.137-5.976 30.651 25.427 23.745 60.942-6.325 34.154-26.72 59.481-44.03 46.349-16.334-13.92-21.483-40.707-18.087-58.828Zm45.728 9.675c4.734-24.888-1.523-34.74-12.139-33.935-9.2.953-17.444 12.213-20.57 28.664-2.493 13.347.536 25.62 9.425 30.288 9.989 5.082 20.325-9.211 23.284-25.017Zm34.138-60.447a108.149 108.149 0 0 1 16.155 5.365 4013.592 4013.592 0 0 0-8.765 47.997c6.896-6.54 13.171-10.579 19.122-8.38 9.339 3.606 11.543 15.413 8.25 32.907-1.047 5.541-7.534 37.354-9.454 46.498a97.65 97.65 0 0 1-15.729 2.751 7529.476 7529.476 0 0 0 7.984-42.773c2.546-14.014-2.031-19.192-14.691-6.015-2.955 16.719-5.906 33.423-8.818 49.915-5.65-.2-11.256-.877-16.791-1.998 7.502-41.863 16.27-90.419 22.737-126.267Zm38.562 97.077c6.003-.882 11.783-2.07 17.22-3.544-1.203 7.219-1.931 11.07-3.027 18.118a114.203 114.203 0 0 1-18.56 9.927c1.618-9.495 2.709-14.793 4.35-24.49l.017-.011Zm14.903-71.576a99.774 99.774 0 0 1 14.164 16.438C162.893 73 158.91 88.921 155.98 103.172c-5.014.406-10.358.764-15.944 1.003 3.612-20.038 8.635-44.74 12.015-59.73Z" fill="#FFF100"/></g><defs><clipPath id="a"><path fill="#fff" transform="rotate(10.706 13.283 141.756)" d="M0 0h158v143H0z"/></clipPath></defs></svg>